<?xml version="1.0" encoding="utf-8"?>
<!-- Generator: Adobe Illustrator 18.1.1, SVG Export Plug-In . SVG Version: 6.00 Build 0)  -->
<svg version="1.1" xmlns="http://www.w3.org/2000/svg" xmlns:xlink="http://www.w3.org/1999/xlink" x="0px" y="0px"
	 viewBox="0 0 150 150" enable-background="new 0 0 150 150" xml:space="preserve">
<g id="icon_x5F_geo_1_">
</g>
<g id="icon_x5F_next">
	<path fill="#1E1E1E" d="M75,97.3c-13.8,0-25-11.2-25-25s11.2-25,25-25s25,11.2,25,25S88.8,97.3,75,97.3z M75,52.3c-11,0-20,9-20,20
		s9,20,20,20s20-9,20-20S86,52.3,75,52.3z"/>
	<path fill="#1E1E1E" d="M75,121.2L32.9,51.1c-0.7-1.2-0.3-2.7,0.9-3.4c1.2-0.7,2.7-0.3,3.4,0.9L75,111.5l37.9-62.9
		c0.7-1.2,2.2-1.6,3.4-0.9c1.2,0.7,1.6,2.2,0.9,3.4L75,121.2z"/>
	<g id="guides_1_" display="none">
	</g>
</g>
<g id="flake">
	<g id="guides" display="none">
	</g>
	<g id="icon_x5F_geo">
	</g>
	<g id="half_hexes">
	</g>
	<g id="triangles">
	</g>
	<g id="picks">
	</g>
</g>
</svg>
