<?xml version="1.0" encoding="UTF-8" standalone="no"?>
<svg width="1110px" height="1110px" viewBox="0 0 1110 1110" version="1.1" xmlns="http://www.w3.org/2000/svg" xmlns:xlink="http://www.w3.org/1999/xlink" xmlns:sketch="http://www.bohemiancoding.com/sketch/ns">
    <!-- Generator: Sketch 3.2.2 (9983) - http://www.bohemiancoding.com/sketch -->
    <title>snowflake_stroked</title>
    <desc>Created with Sketch.</desc>
    <defs></defs>
    <g id="Page-1" stroke="none" stroke-width="1" fill="none" fill-rule="evenodd" sketch:type="MSPage">
        <g id="snowflake_stroked" sketch:type="MSArtboardGroup" fill="#FFFFFF" opacity="0.49661847">
            <g id="half_hexes" sketch:type="MSLayerGroup" transform="translate(182.000000, 172.000000)">
                <g id="Polygon-17-+-Polygon-18" transform="translate(0.000000, 268.000000)" sketch:type="MSShapeGroup">
                    <path d="M94.2807436,59.1650635 L93.0307436,57 L93.0307436,165 L94.2807436,162.834936 L0.75,216.834936 L3.25,221.165064 L96.7807436,167.165064 L98.0307436,166.443376 L98.0307436,165 L98.0307436,57 L98.0307436,55.5566243 L96.7807436,54.8349365 L3.25,0.834936491 L0.75,5.16506351 L94.2807436,59.1650635 Z" id="Polygon-17"></path>
                    <path d="M648.674449,54.8349365 L647.424449,55.5566243 L647.424449,57 L647.424449,165 L647.424449,166.443376 L648.674449,167.165064 L742.205192,221.165064 L744.705192,216.834936 L651.174449,162.834936 L652.424449,165 L652.424449,57 L651.174449,59.1650635 L744.705192,5.16506351 L742.205192,0.834936491 L648.674449,54.8349365 Z" id="Polygon-18"></path>
                </g>
                <g id="Polygon-17-+-Polygon-19" transform="translate(372.750000, 378.566987) rotate(-300.000000) translate(-372.750000, -378.566987) translate(0.250000, 267.566987)" sketch:type="MSShapeGroup">
                    <path d="M94.2807436,59.1650635 L93.0307436,57 L93.0307436,165 L94.2807436,162.834936 L0.75,216.834936 L3.25,221.165064 L96.7807436,167.165064 L98.0307436,166.443376 L98.0307436,165 L98.0307436,57 L98.0307436,55.5566243 L96.7807436,54.8349365 L3.25,0.834936491 L0.75,5.16506351 L94.2807436,59.1650635 Z" id="Polygon-17"></path>
                    <path d="M648.674449,54.8349365 L647.424449,55.5566243 L647.424449,57 L647.424449,165 L647.424449,166.443376 L648.674449,167.165064 L742.205192,221.165064 L744.705192,216.834936 L651.174449,162.834936 L652.424449,165 L652.424449,57 L651.174449,59.1650635 L744.705192,5.16506351 L742.205192,0.834936491 L648.674449,54.8349365 Z" id="Polygon-18"></path>
                </g>
                <g id="Polygon-20-+-Polygon-19" transform="translate(372.750000, 379.433013) rotate(-60.000000) translate(-372.750000, -379.433013) translate(0.250000, 268.433013)" sketch:type="MSShapeGroup">
                    <path d="M94.2807436,59.1650635 L93.0307436,57 L93.0307436,165 L94.2807436,162.834936 L0.75,216.834936 L3.25,221.165064 L96.7807436,167.165064 L98.0307436,166.443376 L98.0307436,165 L98.0307436,57 L98.0307436,55.5566243 L96.7807436,54.8349365 L3.25,0.834936491 L0.75,5.16506351 L94.2807436,59.1650635 Z" id="Polygon-20"></path>
                    <path d="M648.674449,54.8349365 L647.424449,55.5566243 L647.424449,57 L647.424449,165 L647.424449,166.443376 L648.674449,167.165064 L742.205192,221.165064 L744.705192,216.834936 L651.174449,162.834936 L652.424449,165 L652.424449,57 L651.174449,59.1650635 L744.705192,5.16506351 L742.205192,0.834936491 L648.674449,54.8349365 Z" id="Polygon-19"></path>
                </g>
            </g>
        </g>
    </g>
</svg>