<?xml version="1.0" encoding="UTF-8" standalone="no"?>
<svg width="1110px" height="1110px" viewBox="0 0 1110 1110" version="1.1" xmlns="http://www.w3.org/2000/svg" xmlns:xlink="http://www.w3.org/1999/xlink" xmlns:sketch="http://www.bohemiancoding.com/sketch/ns">
    <!-- Generator: Sketch 3.2.2 (9983) - http://www.bohemiancoding.com/sketch -->
    <title>snowflake_stroked</title>
    <desc>Created with Sketch.</desc>
    <defs></defs>
    <g id="Page-1" stroke="none" stroke-width="1" fill="none" fill-rule="evenodd" sketch:type="MSPage">
        <g id="snowflake_stroked" sketch:type="MSArtboardGroup" fill="#FFFFFF">
            <g id="sticks" sketch:type="MSLayerGroup" transform="translate(152.000000, 102.000000)">
                <g id="Path-152-+-Path-153-+-Path-152-+-Path-154" transform="translate(371.000000, 0.000000)" sketch:type="MSShapeGroup">
                    <g id="Path-152-+-Path-153">
                        <path d="M33.6130016,20.1124504 L28.6130016,20.1124504 L28.6130016,129.171902 L33.6130016,129.171902 L33.6130016,20.1124504 Z" id="Path-152"></path>
                        <path d="M30.2606924,22.2836523 L31.4999995,22.9910403 L32.7393066,22.2836523 L62.9635145,5.03188289 L60.4849003,0.689478992 L30.2606924,17.9412484 L32.7393067,17.9412485 L2.51509975,0.689478573 L0.0364854425,5.03188241 L30.2606924,22.2836523 Z" id="Path-153"></path>
                    </g>
                    <g id="Path-152-+-Path-154" transform="translate(31.500000, 825.000000) scale(1, -1) translate(-31.500000, -825.000000) translate(0.000000, 760.000000)">
                        <path d="M33.6130016,20.1124504 L28.6130016,20.1124504 L28.6130016,129.171902 L33.6130016,129.171902 L33.6130016,20.1124504 Z" id="Path-152"></path>
                        <path d="M30.2606924,22.2836523 L31.4999995,22.9910403 L32.7393066,22.2836523 L62.9635145,5.03188289 L60.4849003,0.689478992 L30.2606924,17.9412484 L32.7393067,17.9412485 L2.51509975,0.689478573 L0.0364854425,5.03188241 L30.2606924,22.2836523 Z" id="Path-153"></path>
                    </g>
                </g>
                <g id="Path-152-+-Path-153-+-Path-152-+-Path-155" transform="translate(401.816987, 444.816987) rotate(-300.000000) translate(-401.816987, -444.816987) translate(369.816987, -0.683013)" sketch:type="MSShapeGroup">
                    <g id="Path-152-+-Path-153" transform="translate(1.000000, 0.000000)">
                        <path d="M33.6130016,20.1124504 L28.6130016,20.1124504 L28.6130016,129.171902 L33.6130016,129.171902 L33.6130016,20.1124504 Z" id="Path-152"></path>
                        <path d="M30.2606924,22.2836523 L31.4999995,22.9910403 L32.7393066,22.2836523 L62.9635145,5.03188289 L60.4849003,0.689478992 L30.2606924,17.9412484 L32.7393067,17.9412485 L2.51509975,0.689478573 L0.0364854425,5.03188241 L30.2606924,22.2836523 Z" id="Path-153"></path>
                    </g>
                    <g id="Path-152-+-Path-154" transform="translate(32.500000, 825.000000) scale(1, -1) translate(-32.500000, -825.000000) translate(1.000000, 760.000000)">
                        <path d="M33.6130016,20.1124504 L28.6130016,20.1124504 L28.6130016,129.171902 L33.6130016,129.171902 L33.6130016,20.1124504 Z" id="Path-152"></path>
                        <path d="M30.2606924,22.2836523 L31.4999995,22.9910403 L32.7393066,22.2836523 L62.9635145,5.03188289 L60.4849003,0.689478992 L30.2606924,17.9412484 L32.7393067,17.9412485 L2.51509975,0.689478573 L0.0364854425,5.03188241 L30.2606924,22.2836523 Z" id="Path-153"></path>
                    </g>
                </g>
                <g id="Path-152-+-Path-153-+-Path-152-+-Path-156" transform="translate(402.750000, 444.566987) rotate(-240.000000) translate(-402.750000, -444.566987) translate(370.750000, -0.433013)" sketch:type="MSShapeGroup">
                    <g id="Path-152-+-Path-153" transform="translate(1.000000, 0.000000)">
                        <path d="M33.6130016,20.1124504 L28.6130016,20.1124504 L28.6130016,129.171902 L33.6130016,129.171902 L33.6130016,20.1124504 Z" id="Path-152"></path>
                        <path d="M30.2606924,22.2836523 L31.4999995,22.9910403 L32.7393066,22.2836523 L62.9635145,5.03188289 L60.4849003,0.689478992 L30.2606924,17.9412484 L32.7393067,17.9412485 L2.51509975,0.689478573 L0.0364854425,5.03188241 L30.2606924,22.2836523 Z" id="Path-153"></path>
                    </g>
                    <g id="Path-152-+-Path-154" transform="translate(32.500000, 825.000000) scale(1, -1) translate(-32.500000, -825.000000) translate(1.000000, 760.000000)">
                        <path d="M33.6130016,20.1124504 L28.6130016,20.1124504 L28.6130016,129.171902 L33.6130016,129.171902 L33.6130016,20.1124504 Z" id="Path-152"></path>
                        <path d="M30.2606924,22.2836523 L31.4999995,22.9910403 L32.7393066,22.2836523 L62.9635145,5.03188289 L60.4849003,0.689478992 L30.2606924,17.9412484 L32.7393067,17.9412485 L2.51509975,0.689478573 L0.0364854425,5.03188241 L30.2606924,22.2836523 Z" id="Path-153"></path>
                    </g>
                </g>
            </g>
        </g>
    </g>
</svg>