<?xml version="1.0" encoding="UTF-8" standalone="no"?>
<svg width="1110px" height="1110px" viewBox="0 0 1110 1110" version="1.1" xmlns="http://www.w3.org/2000/svg" xmlns:xlink="http://www.w3.org/1999/xlink" xmlns:sketch="http://www.bohemiancoding.com/sketch/ns">
    <!-- Generator: Sketch 3.2.2 (9983) - http://www.bohemiancoding.com/sketch -->
    <title>snowflake_stroked</title>
    <desc>Created with Sketch.</desc>
    <defs></defs>
    <g id="Page-1" stroke="none" stroke-width="1" fill="none" fill-rule="evenodd" sketch:type="MSPage">
        <g id="snowflake_stroked" sketch:type="MSArtboardGroup" fill="#FFFFFF">
            <g id="triangles" sketch:type="MSLayerGroup" transform="translate(34.000000, 83.000000)">
                <g id="Triangle-6-+-Triangle-7" transform="translate(0.000000, 435.000000)" sketch:type="MSShapeGroup">
                    <path d="M855.5,60.9950148 L855.530469,5.9846782 L1011.56387,33.4934574 L855.5,60.9950148 Z M1040.39902,33.5 L1026.43406,31.0379695 L853.434057,0.537969502 L850.5,0.0206934863 L850.5,3 L850.5,64 L850.5,66.9793065 L853.434057,66.4620305 L1026.43406,35.9620305 L1040.39902,33.5 Z" id="Triangle-6"></path>
                    <path d="M187.565943,66.4620305 L190.5,66.9793065 L190.5,64 L190.5,3 L190.5,0.0206934863 L187.565943,0.537969502 L14.5659426,31.0379695 L0.600982726,33.5 L14.5659426,35.9620305 L187.565943,66.4620305 Z M185.500193,5.98120206 L185.503753,61.0213551 L29.4492906,33.5088632 L185.500193,5.98120206 Z" id="Triangle-7"></path>
                </g>
                <g id="Triangle-6-+-Triangle-9" transform="translate(520.500000, 468.500000) rotate(-60.000000) translate(-520.500000, -468.500000) translate(0.000000, 435.000000)" sketch:type="MSShapeGroup">
                    <path d="M855.500463,61.0113024 L855.50899,5.98089146 L1011.63924,33.5067442 L855.500463,61.0113024 Z M1040.39902,33.5 L1026.43406,31.0379695 L853.434057,0.537969502 L850.5,0.0206934863 L850.5,3 L850.5,64 L850.5,66.9793065 L853.434057,66.4620305 L1026.43406,35.9620305 L1040.39902,33.5 Z" id="Triangle-6"></path>
                    <path d="M187.565943,66.4620305 L190.5,66.9793065 L190.5,64 L190.5,3 L190.5,0.0206934863 L187.565943,0.537969502 L14.5659426,31.0379695 L0.600982726,33.5 L14.5659426,35.9620305 L187.565943,66.4620305 Z M185.5,5.98329304 L185.548803,61.0292975 L29.4494819,33.5088969 L185.5,5.98329304 Z" id="Triangle-7"></path>
                </g>
                <g id="Triangle-6-+-Triangle-8" transform="translate(520.500000, 468.500000) rotate(-300.000000) translate(-520.500000, -468.500000) translate(0.000000, 435.000000)" sketch:type="MSShapeGroup">
                    <path d="M855.499922,60.9823739 L855.498492,5.97904063 L1011.60849,33.5013241 L855.499922,60.9823739 Z M1040.39902,33.5 L1026.43406,31.0379695 L853.434057,0.537969502 L850.5,0.0206934863 L850.5,3 L850.5,64 L850.5,66.9793065 L853.434057,66.4620305 L1026.43406,35.9620305 L1040.39902,33.5 Z" id="Triangle-6"></path>
                    <path d="M187.565943,66.4620305 L190.5,66.9793065 L190.5,64 L190.5,3 L190.5,0.0206934863 L187.565943,0.537969502 L14.5659426,31.0379695 L0.600982726,33.5 L14.5659426,35.9620305 L187.565943,66.4620305 Z M185.499724,5.95579927 L185.494583,61.0197385 L29.407079,33.5014213 L185.499724,5.95579927 Z" id="Triangle-7"></path>
                </g>
            </g>
        </g>
    </g>
</svg>