<?xml version="1.0" encoding="UTF-8" standalone="no"?>
<svg width="1110px" height="1110px" viewBox="0 0 1110 1110" version="1.1" xmlns="http://www.w3.org/2000/svg" xmlns:xlink="http://www.w3.org/1999/xlink" xmlns:sketch="http://www.bohemiancoding.com/sketch/ns">
    <!-- Generator: Sketch 3.2.2 (9983) - http://www.bohemiancoding.com/sketch -->
    <title>snowflake_stroked</title>
    <desc>Created with Sketch.</desc>
    <defs></defs>
    <g id="Page-1" stroke="none" stroke-width="1" fill="none" fill-rule="evenodd" sketch:type="MSPage">
        <g id="snowflake_stroked" sketch:type="MSArtboardGroup" fill="#FFFFFF">
            <g id="icon_geo" sketch:type="MSLayerGroup" transform="translate(428.000000, 403.000000)">
                <path d="M246.520243,215.565507 L247.784313,213.392149 L124.764068,283.357942 L127.234393,283.357069 L4.23877354,213.520282 L5.50437923,215.694684 L5.52730701,73.5754915 L4.26555903,75.746892 L127.238255,5.63412203 L124.76082,5.63359127 L247.767905,75.8358244 L246.507087,73.664783 L246.520243,215.565507 Z M251.506953,72.2127713 L250.24627,71.4932782 L127.239185,1.29104507 L126.000619,0.584174508 L124.761751,1.29051431 L1.78905506,71.4032843 L0.527541351,72.1225352 L0.527307079,73.5746848 L0.504379291,215.693878 L0.504144453,217.149537 L1.76998498,217.86828 L124.765605,287.705066 L126.001015,288.406531 L127.235929,287.704193 L250.256174,217.738401 L251.520378,217.019405 L251.520243,215.565043 L251.507087,73.6643195 L251.506953,72.2127713 Z" id="Polygon-1" sketch:type="MSShapeGroup"></path>
                <path d="M123.5,84.2035176 L123.5,85.6521237 L124.756795,86.3724897 L177.566304,116.641701 L176.30951,114.472728 L176.30951,175.582218 L177.574074,173.408811 L124.764564,203.427472 C123.564225,204.109785 123.144281,205.635976 123.826593,206.836315 C124.508906,208.036655 126.035097,208.456599 127.235436,207.774286 L180.044946,177.755625 L181.30951,177.036805 L181.30951,175.582218 L181.30951,114.472728 L181.30951,113.024122 L180.052715,112.303756 L127.243206,82.0345455 L128.5,84.2035176 L128.5,4.90301617 C128.5,3.52230429 127.380712,2.40301617 126,2.40301617 C124.619289,2.40301617 123.5,3.52230429 123.5,4.90301617 L123.5,84.2035176 Z" id="Path-19" sketch:type="MSShapeGroup"></path>
                <path d="M247.847237,217.742836 L250.32959,213.402569 L180.213318,173.300579 L177.730965,177.640847 L247.847237,217.742836 Z" id="Path-20" sketch:type="MSShapeGroup"></path>
                <path d="M74.2746932,177.552746 L75.5320153,176.832484 L75.5320153,175.383471 L75.5320153,114.329406 C75.5320153,112.948694 74.4127271,111.829406 73.0320153,111.829406 C71.6513034,111.829406 70.5320153,112.948694 70.5320153,114.329406 L70.5320153,175.383471 L71.7893373,173.214197 L1.8770582,213.263738 C0.679001016,213.950051 0.264149631,215.477634 0.950461701,216.675691 C1.63677377,217.873748 3.16435688,218.288599 4.36241406,217.602287 L74.2746932,177.552746 Z" id="Path-21" sketch:type="MSShapeGroup"></path>
            </g>
        </g>
    </g>
</svg>